<svg width="48" height="48" fill="none" xmlns="http://www.w3.org/2000/svg"><g opacity=".9" clip-path="url(#clip0_1_388)"><mask id="path-1-outside-1_1_388" maskUnits="userSpaceOnUse" x="-6.203" y="-6.242" width="60.104" height="60.104" fill="#000"><path fill="#fff" d="M-6.203-6.242h60.104v60.104H-6.203z"/><path fill-rule="evenodd" clip-rule="evenodd" d="M1.705 28.935l.745-.744a3.196 3.196 0 012.1-.936l-2.523-2.523a3.205 3.205 0 01-.94-2.268v-.009l-.001-.001a3.22 3.22 0 01.94-2.276l1.395-1.396a3.21 3.21 0 012.278-.941 3.204 3.204 0 012.277.94l6.824 6.825L25.606 14.8l-6.824-6.824a3.217 3.217 0 01-.941-2.274l.002-.002v-.009a3.213 3.213 0 01.938-2.268l1.398-1.398a3.202 3.202 0 012.276-.94c.823 0 1.649.314 2.277.942l2.523 2.523a3.205 3.205 0 01.934-2.1l.744-.744a3.208 3.208 0 012.278-.94 3.197 3.197 0 012.276.939l3.232 3.232.76.758 4.826 4.826.758.76 3.234 3.234a3.21 3.21 0 01.939 2.275v.005a3.215 3.215 0 01-.94 2.274l-.745.744a3.197 3.197 0 01-2.1.934l2.524 2.524c.627.626.939 1.45.94 2.276l-.002.001a3.21 3.21 0 01-.938 2.275l-1.398 1.398a3.21 3.21 0 01-2.278.941 3.206 3.206 0 01-2.274-.941l-6.345-6.345L22.876 33.68l6.345 6.345c.627.627.94 1.45.94 2.276l-.002.002a3.204 3.204 0 01-.94 2.276l-1.395 1.396a3.204 3.204 0 01-2.277.94 3.208 3.208 0 01-2.276-.94l-2.523-2.524a3.2 3.2 0 01-.936 2.102l-.744.744a3.22 3.22 0 01-4.551 0l-3.234-3.234-.76-.76-4.826-4.825-.76-.76-3.231-3.231a3.212 3.212 0 01-.94-2.269v-.008c.001-.826.315-1.65.94-2.275zm1.08-8l1.396-1.395c.42-.42.97-.627 1.519-.626.55-.001 1.1.208 1.518.626l21.243 21.243c.42.42.628.968.63 1.515l-.003.005a2.132 2.132 0 01-.629 1.515l-1.395 1.396a2.14 2.14 0 01-1.517.627 2.141 2.141 0 01-1.519-.625L2.786 23.973a2.128 2.128 0 01-.626-1.519l-.002-.001c0-.55.209-1.098.628-1.517zm-.32 8.759l.744-.745a2.134 2.134 0 011.518-.626c.55 0 1.1.207 1.517.625l12.81 12.81c.417.417.626.966.628 1.516l-.002.002c0 .549-.21 1.1-.628 1.516l-.744.745a2.138 2.138 0 01-1.515.626 2.14 2.14 0 01-1.519-.625l-12.81-12.81a2.139 2.139 0 01-.628-1.515v-.005a2.131 2.131 0 01.629-1.514zM28.95 3.209l.744-.745a2.135 2.135 0 011.518-.626c.549 0 1.1.207 1.517.625l12.81 12.81c.417.416.626.966.628 1.516l-.002.002c0 .549-.21 1.099-.628 1.516l-.744.745a2.148 2.148 0 01-3.033 0L28.95 6.242a2.13 2.13 0 01-.628-1.514l-.001-.004c0-.55.21-1.098.629-1.515zm-9.41.972l1.398-1.398a2.134 2.134 0 011.517-.624c.55 0 1.1.208 1.519.626L41 19.812l4.216 4.215c.419.42.627.969.629 1.515l-.002.005c0 .55-.21 1.097-.628 1.514L43.82 28.46a2.14 2.14 0 01-1.517.627 2.14 2.14 0 01-1.519-.625L19.541 7.218a2.134 2.134 0 01-.628-1.517v-.003c0-.548.21-1.1.628-1.517zm-3.8 22.003l5.313-5.313 5.313-5.313 6.557 6.557-10.626 10.626-6.557-6.557z"/></mask><path fill-rule="evenodd" clip-rule="evenodd" d="M1.705 28.935l.745-.744a3.196 3.196 0 012.1-.936l-2.523-2.523a3.205 3.205 0 01-.94-2.268v-.009l-.001-.001a3.22 3.22 0 01.94-2.276l1.395-1.396a3.21 3.21 0 012.278-.941 3.204 3.204 0 012.277.94l6.824 6.825L25.606 14.8l-6.824-6.824a3.217 3.217 0 01-.941-2.274l.002-.002v-.009a3.213 3.213 0 01.938-2.268l1.398-1.398a3.202 3.202 0 012.276-.94c.823 0 1.649.314 2.277.942l2.523 2.523a3.205 3.205 0 01.934-2.1l.744-.744a3.208 3.208 0 012.278-.94 3.197 3.197 0 012.276.939l3.232 3.232.76.758 4.826 4.826.758.76 3.234 3.234a3.21 3.21 0 01.939 2.275v.005a3.215 3.215 0 01-.94 2.274l-.745.744a3.197 3.197 0 01-2.1.934l2.524 2.524c.627.626.939 1.45.94 2.276l-.002.001a3.21 3.21 0 01-.938 2.275l-1.398 1.398a3.21 3.21 0 01-2.278.941 3.206 3.206 0 01-2.274-.941l-6.345-6.345L22.876 33.68l6.345 6.345c.627.627.94 1.45.94 2.276l-.002.002a3.204 3.204 0 01-.94 2.276l-1.395 1.396a3.204 3.204 0 01-2.277.94 3.208 3.208 0 01-2.276-.94l-2.523-2.524a3.2 3.2 0 01-.936 2.102l-.744.744a3.22 3.22 0 01-4.551 0l-3.234-3.234-.76-.76-4.826-4.825-.76-.76-3.231-3.231a3.212 3.212 0 01-.94-2.269v-.008c.001-.826.315-1.65.94-2.275zm1.08-8l1.396-1.395c.42-.42.97-.627 1.519-.626.55-.001 1.1.208 1.518.626l21.243 21.243c.42.42.628.968.63 1.515l-.003.005a2.132 2.132 0 01-.629 1.515l-1.395 1.396a2.14 2.14 0 01-1.517.627 2.141 2.141 0 01-1.519-.625L2.786 23.973a2.128 2.128 0 01-.626-1.519l-.002-.001c0-.55.209-1.098.628-1.517zm-.32 8.759l.744-.745a2.134 2.134 0 011.518-.626c.55 0 1.1.207 1.517.625l12.81 12.81c.417.417.626.966.628 1.516l-.002.002c0 .549-.21 1.1-.628 1.516l-.744.745a2.138 2.138 0 01-1.515.626 2.14 2.14 0 01-1.519-.625l-12.81-12.81a2.139 2.139 0 01-.628-1.515v-.005a2.131 2.131 0 01.629-1.514zM28.95 3.209l.744-.745a2.135 2.135 0 011.518-.626c.549 0 1.1.207 1.517.625l12.81 12.81c.417.416.626.966.628 1.516l-.002.002c0 .549-.21 1.099-.628 1.516l-.744.745a2.148 2.148 0 01-3.033 0L28.95 6.242a2.13 2.13 0 01-.628-1.514l-.001-.004c0-.55.21-1.098.629-1.515zm-9.41.972l1.398-1.398a2.134 2.134 0 011.517-.624c.55 0 1.1.208 1.519.626L41 19.812l4.216 4.215c.419.42.627.969.629 1.515l-.002.005c0 .55-.21 1.097-.628 1.514L43.82 28.46a2.14 2.14 0 01-1.517.627 2.14 2.14 0 01-1.519-.625L19.541 7.218a2.134 2.134 0 01-.628-1.517v-.003c0-.548.21-1.1.628-1.517zm-3.8 22.003l5.313-5.313 5.313-5.313 6.557 6.557-10.626 10.626-6.557-6.557z" fill="#B01736"/><path clip-rule="evenodd" d="M1.705 28.935l.745-.744a3.196 3.196 0 012.1-.936l-2.523-2.523a3.205 3.205 0 01-.94-2.268v-.009l-.001-.001a3.22 3.22 0 01.94-2.276l1.395-1.396a3.21 3.21 0 012.278-.941 3.204 3.204 0 012.277.94l6.824 6.825L25.606 14.8l-6.824-6.824a3.217 3.217 0 01-.941-2.274l.002-.002v-.009a3.213 3.213 0 01.938-2.268l1.398-1.398a3.202 3.202 0 012.276-.94c.823 0 1.649.314 2.277.942l2.523 2.523a3.205 3.205 0 01.934-2.1l.744-.744a3.208 3.208 0 012.278-.94 3.197 3.197 0 012.276.939l3.232 3.232.76.758 4.826 4.826.758.76 3.234 3.234a3.21 3.21 0 01.939 2.275v.005a3.215 3.215 0 01-.94 2.274l-.745.744a3.197 3.197 0 01-2.1.934l2.524 2.524c.627.626.939 1.45.94 2.276l-.002.001a3.21 3.21 0 01-.938 2.275l-1.398 1.398a3.21 3.21 0 01-2.278.941 3.206 3.206 0 01-2.274-.941l-6.345-6.345L22.876 33.68l6.345 6.345c.627.627.94 1.45.94 2.276l-.002.002a3.204 3.204 0 01-.94 2.276l-1.395 1.396a3.204 3.204 0 01-2.277.94 3.208 3.208 0 01-2.276-.94l-2.523-2.524a3.2 3.2 0 01-.936 2.102l-.744.744a3.22 3.22 0 01-4.551 0l-3.234-3.234-.76-.76-4.826-4.825-.76-.76-3.231-3.231a3.212 3.212 0 01-.94-2.269v-.008c.001-.826.315-1.65.94-2.275zm1.08-8l1.396-1.395c.42-.42.97-.627 1.519-.626.55-.001 1.1.208 1.518.626l21.243 21.243c.42.42.628.968.63 1.515l-.003.005a2.132 2.132 0 01-.629 1.515l-1.395 1.396a2.14 2.14 0 01-1.517.627 2.141 2.141 0 01-1.519-.625L2.786 23.973a2.128 2.128 0 01-.626-1.519l-.002-.001c0-.55.209-1.098.628-1.517zm-.32 8.759l.744-.745a2.134 2.134 0 011.518-.626c.55 0 1.1.207 1.517.625l12.81 12.81c.417.417.626.966.628 1.516l-.002.002c0 .549-.21 1.1-.628 1.516l-.744.745a2.138 2.138 0 01-1.515.626 2.14 2.14 0 01-1.519-.625l-12.81-12.81a2.139 2.139 0 01-.628-1.515v-.005a2.131 2.131 0 01.629-1.514zM28.95 3.209l.744-.745a2.135 2.135 0 011.518-.626c.549 0 1.1.207 1.517.625l12.81 12.81c.417.416.626.966.628 1.516l-.002.002c0 .549-.21 1.099-.628 1.516l-.744.745a2.148 2.148 0 01-3.033 0L28.95 6.242a2.13 2.13 0 01-.628-1.514l-.001-.004c0-.55.21-1.098.629-1.515zm-9.41.972l1.398-1.398a2.134 2.134 0 011.517-.624c.55 0 1.1.208 1.519.626L41 19.812l4.216 4.215c.419.42.627.969.629 1.515l-.002.005c0 .55-.21 1.097-.628 1.514L43.82 28.46a2.14 2.14 0 01-1.517.627 2.14 2.14 0 01-1.519-.625L19.541 7.218a2.134 2.134 0 01-.628-1.517v-.003c0-.548.21-1.1.628-1.517zm-3.8 22.003l5.313-5.313 5.313-5.313 6.557 6.557-10.626 10.626-6.557-6.557z" stroke="#B01736" stroke-width=".8" mask="url(#path-1-outside-1_1_388)"/></g><defs><clipPath id="clip0_1_388"><path fill="#fff" d="M0 0h48v48H0z"/></clipPath></defs></svg>